<?xml version="1.0" encoding="UTF-8"?>
<!DOCTYPE svg
PUBLIC "-//W3C//DTD SVG 1.1//EN"
       "http://www.w3.org/Graphics/SVG/1.1/DTD/svg11.dtd">
<svg viewBox="81 23 1503 1481" width="1422px" height="1458px" xmlns="http://www.w3.org/2000/svg" version="1.1">
   <line x1="603" y1="363" x2="593" y2="363" style="stroke:#bbb;stroke-width:1;"/>
   <line x1="268" y1="380" x2="258" y2="380" style="stroke:#bbb;stroke-width:1;"/>
   <line x1="593" y1="363" x2="268" y2="380" style="stroke:#bbb;stroke-width:1;"/>
   <line x1="595.5" y1="363" x2="599.03553390593" y2="366.53553390593" style="stroke:#bbb;stroke-width:2;"/>
   <line x1="595.5" y1="363" x2="599.03553390593" y2="359.46446609407" style="stroke:#bbb;stroke-width:2;"/>
   <line x1="263" y1="380" x2="266.53553390593" y2="383.53553390593" style="stroke:#bbb;stroke-width:2;"/>
   <line x1="263" y1="380" x2="266.53553390593" y2="376.46446609407" style="stroke:#bbb;stroke-width:2;"/>
   <line x1="785" y1="383" x2="795" y2="383" style="stroke:#b0b;stroke-width:1;"/>
   <line x1="925" y1="110" x2="935" y2="110" style="stroke:#b0b;stroke-width:1;"/>
   <line x1="795" y1="383" x2="925" y2="110" style="stroke:#b0b;stroke-width:1;"/>
   <line x1="792.5" y1="383" x2="788.96446609407" y2="386.53553390593" style="stroke:#b0b;stroke-width:2;"/>
   <line x1="792.5" y1="383" x2="788.96446609407" y2="379.46446609407" style="stroke:#b0b;stroke-width:2;"/>
   <line x1="930" y1="110" x2="926.46446609407" y2="113.53553390593" style="stroke:#b0b;stroke-width:2;"/>
   <line x1="930" y1="110" x2="926.46446609407" y2="106.46446609407" style="stroke:#b0b;stroke-width:2;"/>
   <line x1="603" y1="423" x2="593" y2="423" style="stroke:#cb0;stroke-width:1;"/>
   <line x1="239" y1="87" x2="229" y2="87" style="stroke:#cb0;stroke-width:1;"/>
   <line x1="593" y1="423" x2="239" y2="87" style="stroke:#cb0;stroke-width:1;"/>
   <line x1="595.5" y1="423" x2="599.03553390593" y2="426.53553390593" style="stroke:#cb0;stroke-width:2;"/>
   <line x1="595.5" y1="423" x2="599.03553390593" y2="419.46446609407" style="stroke:#cb0;stroke-width:2;"/>
   <line x1="234" y1="87" x2="237.53553390593" y2="90.535533905933" style="stroke:#cb0;stroke-width:2;"/>
   <line x1="234" y1="87" x2="237.53553390593" y2="83.464466094067" style="stroke:#cb0;stroke-width:2;"/>
   <line x1="603" y1="403" x2="593" y2="403" style="stroke:#bbb;stroke-width:1;"/>
   <line x1="557" y1="68" x2="567" y2="68" style="stroke:#bbb;stroke-width:1;"/>
   <line x1="593" y1="403" x2="557" y2="68" style="stroke:#bbb;stroke-width:1;"/>
   <line x1="595.5" y1="403" x2="599.03553390593" y2="406.53553390593" style="stroke:#bbb;stroke-width:2;"/>
   <line x1="595.5" y1="403" x2="599.03553390593" y2="399.46446609407" style="stroke:#bbb;stroke-width:2;"/>
   <line x1="562" y1="68" x2="558.46446609407" y2="71.535533905933" style="stroke:#bbb;stroke-width:2;"/>
   <line x1="562" y1="68" x2="558.46446609407" y2="64.464466094067" style="stroke:#bbb;stroke-width:2;"/>
   <line x1="603" y1="403" x2="593" y2="403" style="stroke:#c00;stroke-width:1;"/>
   <line x1="557" y1="68" x2="567" y2="68" style="stroke:#c00;stroke-width:1;"/>
   <line x1="593" y1="403" x2="557" y2="68" style="stroke:#c00;stroke-width:1;"/>
   <line x1="595.5" y1="403" x2="599.03553390593" y2="406.53553390593" style="stroke:#c00;stroke-width:2;"/>
   <line x1="595.5" y1="403" x2="599.03553390593" y2="399.46446609407" style="stroke:#c00;stroke-width:2;"/>
   <line x1="562" y1="68" x2="558.46446609407" y2="71.535533905933" style="stroke:#c00;stroke-width:2;"/>
   <line x1="562" y1="68" x2="558.46446609407" y2="64.464466094067" style="stroke:#c00;stroke-width:2;"/>
   <line x1="253" y1="1248" x2="263" y2="1248" style="stroke:#cb0;stroke-width:1;"/>
   <line x1="576" y1="980" x2="586" y2="980" style="stroke:#cb0;stroke-width:1;"/>
   <line x1="263" y1="1248" x2="576" y2="980" style="stroke:#cb0;stroke-width:1;"/>
   <line x1="260.5" y1="1248" x2="256.96446609407" y2="1251.5355339059" style="stroke:#cb0;stroke-width:2;"/>
   <line x1="260.5" y1="1248" x2="256.96446609407" y2="1244.4644660941" style="stroke:#cb0;stroke-width:2;"/>
   <line x1="581" y1="980" x2="577.46446609407" y2="983.53553390593" style="stroke:#cb0;stroke-width:2;"/>
   <line x1="581" y1="980" x2="577.46446609407" y2="976.46446609407" style="stroke:#cb0;stroke-width:2;"/>
   <line x1="96" y1="1268" x2="86" y2="1268" style="stroke:#333;stroke-width:1;"/>
   <line x1="89" y1="1349" x2="99" y2="1349" style="stroke:#333;stroke-width:1;"/>
   <line x1="86" y1="1268" x2="89" y2="1349" style="stroke:#333;stroke-width:1;"/>
   <line x1="88.5" y1="1268" x2="92.035533905933" y2="1271.5355339059" style="stroke:#333;stroke-width:2;"/>
   <line x1="88.5" y1="1268" x2="92.035533905933" y2="1264.4644660941" style="stroke:#333;stroke-width:2;"/>
   <line x1="94" y1="1349" x2="90.464466094067" y2="1352.5355339059" style="stroke:#333;stroke-width:2;"/>
   <line x1="94" y1="1349" x2="90.464466094067" y2="1345.4644660941" style="stroke:#333;stroke-width:2;"/>
   <line x1="1014" y1="997" x2="1004" y2="997" style="stroke:#c00;stroke-width:1;"/>
   <line x1="797" y1="980" x2="787" y2="980" style="stroke:#c00;stroke-width:1;"/>
   <line x1="1004" y1="997" x2="797" y2="980" style="stroke:#c00;stroke-width:1;"/>
   <line x1="1006.5" y1="997" x2="1010.0355339059" y2="1000.5355339059" style="stroke:#c00;stroke-width:2;"/>
   <line x1="1006.5" y1="997" x2="1010.0355339059" y2="993.46446609407" style="stroke:#c00;stroke-width:2;"/>
   <line x1="792" y1="980" x2="795.53553390593" y2="983.53553390593" style="stroke:#c00;stroke-width:2;"/>
   <line x1="792" y1="980" x2="795.53553390593" y2="976.46446609407" style="stroke:#c00;stroke-width:2;"/>
   <line x1="1014" y1="1017" x2="1004" y2="1017" style="stroke:#333;stroke-width:1;"/>
   <line x1="797" y1="980" x2="787" y2="980" style="stroke:#333;stroke-width:1;"/>
   <line x1="1004" y1="1017" x2="797" y2="980" style="stroke:#333;stroke-width:1;"/>
   <line x1="1006.5" y1="1017" x2="1010.0355339059" y2="1020.5355339059" style="stroke:#333;stroke-width:2;"/>
   <line x1="1006.5" y1="1017" x2="1010.0355339059" y2="1013.4644660941" style="stroke:#333;stroke-width:2;"/>
   <line x1="792" y1="980" x2="795.53553390593" y2="983.53553390593" style="stroke:#333;stroke-width:2;"/>
   <line x1="792" y1="980" x2="795.53553390593" y2="976.46446609407" style="stroke:#333;stroke-width:2;"/>
   <line x1="1014" y1="1017" x2="1004" y2="1017" style="stroke:#333;stroke-width:1;"/>
   <line x1="797" y1="980" x2="787" y2="980" style="stroke:#333;stroke-width:1;"/>
   <line x1="1004" y1="1017" x2="797" y2="980" style="stroke:#333;stroke-width:1;"/>
   <line x1="1006.5" y1="1017" x2="1010.0355339059" y2="1020.5355339059" style="stroke:#333;stroke-width:2;"/>
   <line x1="1006.5" y1="1017" x2="1010.0355339059" y2="1013.4644660941" style="stroke:#333;stroke-width:2;"/>
   <line x1="792" y1="980" x2="795.53553390593" y2="983.53553390593" style="stroke:#333;stroke-width:2;"/>
   <line x1="792" y1="980" x2="795.53553390593" y2="976.46446609407" style="stroke:#333;stroke-width:2;"/>
   <line x1="1014" y1="997" x2="1004" y2="997" style="stroke:#cb0;stroke-width:1;"/>
   <line x1="797" y1="980" x2="787" y2="980" style="stroke:#cb0;stroke-width:1;"/>
   <line x1="1004" y1="997" x2="797" y2="980" style="stroke:#cb0;stroke-width:1;"/>
   <line x1="1006.5" y1="997" x2="1010.0355339059" y2="1000.5355339059" style="stroke:#cb0;stroke-width:2;"/>
   <line x1="1006.5" y1="997" x2="1010.0355339059" y2="993.46446609407" style="stroke:#cb0;stroke-width:2;"/>
   <line x1="792" y1="980" x2="795.53553390593" y2="983.53553390593" style="stroke:#cb0;stroke-width:2;"/>
   <line x1="792" y1="980" x2="795.53553390593" y2="976.46446609407" style="stroke:#cb0;stroke-width:2;"/>
   <line x1="935" y1="170" x2="925" y2="170" style="stroke:#0b0;stroke-width:1;"/>
   <line x1="795" y1="223" x2="785" y2="223" style="stroke:#0b0;stroke-width:1;"/>
   <line x1="925" y1="170" x2="795" y2="223" style="stroke:#0b0;stroke-width:1;"/>
   <line x1="927.5" y1="170" x2="931.03553390593" y2="173.53553390593" style="stroke:#0b0;stroke-width:2;"/>
   <line x1="927.5" y1="170" x2="931.03553390593" y2="166.46446609407" style="stroke:#0b0;stroke-width:2;"/>
   <line x1="790" y1="223" x2="793.53553390593" y2="226.53553390593" style="stroke:#0b0;stroke-width:2;"/>
   <line x1="790" y1="223" x2="793.53553390593" y2="219.46446609407" style="stroke:#0b0;stroke-width:2;"/>
   <line x1="586" y1="1100" x2="576" y2="1100" style="stroke:#bbb;stroke-width:1;"/>
   <line x1="261" y1="1082" x2="251" y2="1082" style="stroke:#bbb;stroke-width:1;"/>
   <line x1="576" y1="1100" x2="261" y2="1082" style="stroke:#bbb;stroke-width:1;"/>
   <line x1="578.5" y1="1100" x2="582.03553390593" y2="1103.5355339059" style="stroke:#bbb;stroke-width:2;"/>
   <line x1="578.5" y1="1100" x2="582.03553390593" y2="1096.4644660941" style="stroke:#bbb;stroke-width:2;"/>
   <line x1="256" y1="1082" x2="259.53553390593" y2="1085.5355339059" style="stroke:#bbb;stroke-width:2;"/>
   <line x1="256" y1="1082" x2="259.53553390593" y2="1078.4644660941" style="stroke:#bbb;stroke-width:2;"/>
   <line x1="394" y1="942" x2="404" y2="942" style="stroke:#b0b;stroke-width:1;"/>
   <line x1="576" y1="980" x2="586" y2="980" style="stroke:#b0b;stroke-width:1;"/>
   <line x1="404" y1="942" x2="576" y2="980" style="stroke:#b0b;stroke-width:1;"/>
   <line x1="401.5" y1="942" x2="397.96446609407" y2="945.53553390593" style="stroke:#b0b;stroke-width:2;"/>
   <line x1="401.5" y1="942" x2="397.96446609407" y2="938.46446609407" style="stroke:#b0b;stroke-width:2;"/>
   <line x1="581" y1="980" x2="577.46446609407" y2="983.53553390593" style="stroke:#b0b;stroke-width:2;"/>
   <line x1="581" y1="980" x2="577.46446609407" y2="976.46446609407" style="stroke:#b0b;stroke-width:2;"/>
   <line x1="394" y1="902" x2="404" y2="902" style="stroke:#0bf;stroke-width:1;"/>
   <line x1="606" y1="630" x2="616" y2="630" style="stroke:#0bf;stroke-width:1;"/>
   <line x1="404" y1="902" x2="606" y2="630" style="stroke:#0bf;stroke-width:1;"/>
   <line x1="401.5" y1="902" x2="397.96446609407" y2="905.53553390593" style="stroke:#0bf;stroke-width:2;"/>
   <line x1="401.5" y1="902" x2="397.96446609407" y2="898.46446609407" style="stroke:#0bf;stroke-width:2;"/>
   <line x1="611" y1="630" x2="607.46446609407" y2="633.53553390593" style="stroke:#0bf;stroke-width:2;"/>
   <line x1="611" y1="630" x2="607.46446609407" y2="626.46446609407" style="stroke:#0bf;stroke-width:2;"/>
   <line x1="394" y1="922" x2="404" y2="922" style="stroke:#0b0;stroke-width:1;"/>
   <line x1="606" y1="650" x2="616" y2="650" style="stroke:#0b0;stroke-width:1;"/>
   <line x1="404" y1="922" x2="606" y2="650" style="stroke:#0b0;stroke-width:1;"/>
   <line x1="401.5" y1="922" x2="397.96446609407" y2="925.53553390593" style="stroke:#0b0;stroke-width:2;"/>
   <line x1="401.5" y1="922" x2="397.96446609407" y2="918.46446609407" style="stroke:#0b0;stroke-width:2;"/>
   <line x1="611" y1="650" x2="607.46446609407" y2="653.53553390593" style="stroke:#0b0;stroke-width:2;"/>
   <line x1="611" y1="650" x2="607.46446609407" y2="646.46446609407" style="stroke:#0b0;stroke-width:2;"/>
   <line x1="1274" y1="621" x2="1264" y2="621" style="stroke:#cb0;stroke-width:1;"/>
   <line x1="1270" y1="345" x2="1280" y2="345" style="stroke:#cb0;stroke-width:1;"/>
   <line x1="1264" y1="621" x2="1270" y2="345" style="stroke:#cb0;stroke-width:1;"/>
   <line x1="1266.5" y1="621" x2="1270.0355339059" y2="624.53553390593" style="stroke:#cb0;stroke-width:2;"/>
   <line x1="1266.5" y1="621" x2="1270.0355339059" y2="617.46446609407" style="stroke:#cb0;stroke-width:2;"/>
   <line x1="1275" y1="345" x2="1271.4644660941" y2="348.53553390593" style="stroke:#cb0;stroke-width:2;"/>
   <line x1="1275" y1="345" x2="1271.4644660941" y2="341.46446609407" style="stroke:#cb0;stroke-width:2;"/>
   <line x1="1274" y1="641" x2="1264" y2="641" style="stroke:#c00;stroke-width:1;"/>
   <line x1="1266" y1="795" x2="1276" y2="795" style="stroke:#c00;stroke-width:1;"/>
   <line x1="1264" y1="641" x2="1266" y2="795" style="stroke:#c00;stroke-width:1;"/>
   <line x1="1266.5" y1="641" x2="1270.0355339059" y2="644.53553390593" style="stroke:#c00;stroke-width:2;"/>
   <line x1="1266.5" y1="641" x2="1270.0355339059" y2="637.46446609407" style="stroke:#c00;stroke-width:2;"/>
   <line x1="1271" y1="795" x2="1267.4644660941" y2="798.53553390593" style="stroke:#c00;stroke-width:2;"/>
   <line x1="1271" y1="795" x2="1267.4644660941" y2="791.46446609407" style="stroke:#c00;stroke-width:2;"/>
   <line x1="1280" y1="485" x2="1270" y2="485" style="stroke:#bbb;stroke-width:1;"/>
   <line x1="1250" y1="168" x2="1260" y2="168" style="stroke:#bbb;stroke-width:1;"/>
   <line x1="1270" y1="485" x2="1250" y2="168" style="stroke:#bbb;stroke-width:1;"/>
   <line x1="1272.5" y1="485" x2="1276.0355339059" y2="488.53553390593" style="stroke:#bbb;stroke-width:2;"/>
   <line x1="1272.5" y1="485" x2="1276.0355339059" y2="481.46446609407" style="stroke:#bbb;stroke-width:2;"/>
   <line x1="1255" y1="168" x2="1251.4644660941" y2="171.53553390593" style="stroke:#bbb;stroke-width:2;"/>
   <line x1="1255" y1="168" x2="1251.4644660941" y2="164.46446609407" style="stroke:#bbb;stroke-width:2;"/>
   <line x1="764" y1="1265" x2="774" y2="1265" style="stroke:#cb0;stroke-width:1;"/>
   <line x1="892" y1="1416" x2="902" y2="1416" style="stroke:#cb0;stroke-width:1;"/>
   <line x1="774" y1="1265" x2="892" y2="1416" style="stroke:#cb0;stroke-width:1;"/>
   <line x1="771.5" y1="1265" x2="767.96446609407" y2="1268.5355339059" style="stroke:#cb0;stroke-width:2;"/>
   <line x1="771.5" y1="1265" x2="767.96446609407" y2="1261.4644660941" style="stroke:#cb0;stroke-width:2;"/>
   <line x1="897" y1="1416" x2="893.46446609407" y2="1419.5355339059" style="stroke:#cb0;stroke-width:2;"/>
   <line x1="897" y1="1416" x2="893.46446609407" y2="1412.4644660941" style="stroke:#cb0;stroke-width:2;"/>
   <line x1="607" y1="1285" x2="597" y2="1285" style="stroke:#0bf;stroke-width:1;"/>
   <line x1="576" y1="980" x2="586" y2="980" style="stroke:#0bf;stroke-width:1;"/>
   <line x1="597" y1="1285" x2="576" y2="980" style="stroke:#0bf;stroke-width:1;"/>
   <line x1="599.5" y1="1285" x2="603.03553390593" y2="1288.5355339059" style="stroke:#0bf;stroke-width:2;"/>
   <line x1="599.5" y1="1285" x2="603.03553390593" y2="1281.4644660941" style="stroke:#0bf;stroke-width:2;"/>
   <line x1="581" y1="980" x2="577.46446609407" y2="983.53553390593" style="stroke:#0bf;stroke-width:2;"/>
   <line x1="581" y1="980" x2="577.46446609407" y2="976.46446609407" style="stroke:#0bf;stroke-width:2;"/>
   <line x1="607" y1="1245" x2="597" y2="1245" style="stroke:#bbb;stroke-width:1;"/>
   <line x1="528" y1="1432" x2="518" y2="1432" style="stroke:#bbb;stroke-width:1;"/>
   <line x1="597" y1="1245" x2="528" y2="1432" style="stroke:#bbb;stroke-width:1;"/>
   <line x1="599.5" y1="1245" x2="603.03553390593" y2="1248.5355339059" style="stroke:#bbb;stroke-width:2;"/>
   <line x1="599.5" y1="1245" x2="603.03553390593" y2="1241.4644660941" style="stroke:#bbb;stroke-width:2;"/>
   <line x1="523" y1="1432" x2="526.53553390593" y2="1435.5355339059" style="stroke:#bbb;stroke-width:2;"/>
   <line x1="523" y1="1432" x2="526.53553390593" y2="1428.4644660941" style="stroke:#bbb;stroke-width:2;"/>
   <line x1="778" y1="670" x2="788" y2="670" style="stroke:#0b0;stroke-width:1;"/>
   <line x1="1270" y1="345" x2="1280" y2="345" style="stroke:#0b0;stroke-width:1;"/>
   <line x1="788" y1="670" x2="1270" y2="345" style="stroke:#0b0;stroke-width:1;"/>
   <line x1="785.5" y1="670" x2="781.96446609407" y2="673.53553390593" style="stroke:#0b0;stroke-width:2;"/>
   <line x1="785.5" y1="670" x2="781.96446609407" y2="666.46446609407" style="stroke:#0b0;stroke-width:2;"/>
   <line x1="1275" y1="345" x2="1271.4644660941" y2="348.53553390593" style="stroke:#0b0;stroke-width:2;"/>
   <line x1="1275" y1="345" x2="1271.4644660941" y2="341.46446609407" style="stroke:#0b0;stroke-width:2;"/>
   <line x1="778" y1="630" x2="788" y2="630" style="stroke:#cb0;stroke-width:1;"/>
   <line x1="795" y1="223" x2="785" y2="223" style="stroke:#cb0;stroke-width:1;"/>
   <line x1="788" y1="630" x2="795" y2="223" style="stroke:#cb0;stroke-width:1;"/>
   <line x1="785.5" y1="630" x2="781.96446609407" y2="633.53553390593" style="stroke:#cb0;stroke-width:2;"/>
   <line x1="785.5" y1="630" x2="781.96446609407" y2="626.46446609407" style="stroke:#cb0;stroke-width:2;"/>
   <line x1="790" y1="223" x2="793.53553390593" y2="226.53553390593" style="stroke:#cb0;stroke-width:2;"/>
   <line x1="790" y1="223" x2="793.53553390593" y2="219.46446609407" style="stroke:#cb0;stroke-width:2;"/>
   <line x1="616" y1="790" x2="606" y2="790" style="stroke:#0b0;stroke-width:1;"/>
   <line x1="241" y1="762" x2="231" y2="762" style="stroke:#0b0;stroke-width:1;"/>
   <line x1="606" y1="790" x2="241" y2="762" style="stroke:#0b0;stroke-width:1;"/>
   <line x1="608.5" y1="790" x2="612.03553390593" y2="793.53553390593" style="stroke:#0b0;stroke-width:2;"/>
   <line x1="608.5" y1="790" x2="612.03553390593" y2="786.46446609407" style="stroke:#0b0;stroke-width:2;"/>
   <line x1="236" y1="762" x2="239.53553390593" y2="765.53553390593" style="stroke:#0b0;stroke-width:2;"/>
   <line x1="236" y1="762" x2="239.53553390593" y2="758.46446609407" style="stroke:#0b0;stroke-width:2;"/>
   <line x1="616" y1="770" x2="606" y2="770" style="stroke:#c00;stroke-width:1;"/>
   <line x1="235" y1="650" x2="225" y2="650" style="stroke:#c00;stroke-width:1;"/>
   <line x1="606" y1="770" x2="235" y2="650" style="stroke:#c00;stroke-width:1;"/>
   <line x1="608.5" y1="770" x2="612.03553390593" y2="773.53553390593" style="stroke:#c00;stroke-width:2;"/>
   <line x1="608.5" y1="770" x2="612.03553390593" y2="766.46446609407" style="stroke:#c00;stroke-width:2;"/>
   <line x1="230" y1="650" x2="233.53553390593" y2="653.53553390593" style="stroke:#c00;stroke-width:2;"/>
   <line x1="230" y1="650" x2="233.53553390593" y2="646.46446609407" style="stroke:#c00;stroke-width:2;"/>
   <line x1="778" y1="830" x2="788" y2="830" style="stroke:#cb0;stroke-width:1;"/>
   <line x1="797" y1="980" x2="787" y2="980" style="stroke:#cb0;stroke-width:1;"/>
   <line x1="788" y1="830" x2="797" y2="980" style="stroke:#cb0;stroke-width:1;"/>
   <line x1="785.5" y1="830" x2="781.96446609407" y2="833.53553390593" style="stroke:#cb0;stroke-width:2;"/>
   <line x1="785.5" y1="830" x2="781.96446609407" y2="826.46446609407" style="stroke:#cb0;stroke-width:2;"/>
   <line x1="792" y1="980" x2="795.53553390593" y2="983.53553390593" style="stroke:#cb0;stroke-width:2;"/>
   <line x1="792" y1="980" x2="795.53553390593" y2="976.46446609407" style="stroke:#cb0;stroke-width:2;"/>
   <line x1="778" y1="850" x2="788" y2="850" style="stroke:#333;stroke-width:1;"/>
   <line x1="797" y1="980" x2="787" y2="980" style="stroke:#333;stroke-width:1;"/>
   <line x1="788" y1="850" x2="797" y2="980" style="stroke:#333;stroke-width:1;"/>
   <line x1="785.5" y1="850" x2="781.96446609407" y2="853.53553390593" style="stroke:#333;stroke-width:2;"/>
   <line x1="785.5" y1="850" x2="781.96446609407" y2="846.46446609407" style="stroke:#333;stroke-width:2;"/>
   <line x1="792" y1="980" x2="795.53553390593" y2="983.53553390593" style="stroke:#333;stroke-width:2;"/>
   <line x1="792" y1="980" x2="795.53553390593" y2="976.46446609407" style="stroke:#333;stroke-width:2;"/>
   <line x1="778" y1="750" x2="788" y2="750" style="stroke:#0bf;stroke-width:1;"/>
   <line x1="1270" y1="345" x2="1280" y2="345" style="stroke:#0bf;stroke-width:1;"/>
   <line x1="788" y1="750" x2="1270" y2="345" style="stroke:#0bf;stroke-width:1;"/>
   <line x1="785.5" y1="750" x2="781.96446609407" y2="753.53553390593" style="stroke:#0bf;stroke-width:2;"/>
   <line x1="785.5" y1="750" x2="781.96446609407" y2="746.46446609407" style="stroke:#0bf;stroke-width:2;"/>
   <line x1="1275" y1="345" x2="1271.4644660941" y2="348.53553390593" style="stroke:#0bf;stroke-width:2;"/>
   <line x1="1275" y1="345" x2="1271.4644660941" y2="341.46446609407" style="stroke:#0bf;stroke-width:2;"/>
   <line x1="229" y1="127" x2="239" y2="127" style="stroke:#0bf;stroke-width:1;"/>
   <line x1="557" y1="68" x2="567" y2="68" style="stroke:#0bf;stroke-width:1;"/>
   <line x1="239" y1="127" x2="557" y2="68" style="stroke:#0bf;stroke-width:1;"/>
   <line x1="236.5" y1="127" x2="232.96446609407" y2="130.53553390593" style="stroke:#0bf;stroke-width:2;"/>
   <line x1="236.5" y1="127" x2="232.96446609407" y2="123.46446609407" style="stroke:#0bf;stroke-width:2;"/>
   <line x1="562" y1="68" x2="558.46446609407" y2="71.535533905933" style="stroke:#0bf;stroke-width:2;"/>
   <line x1="562" y1="68" x2="558.46446609407" y2="64.464466094067" style="stroke:#0bf;stroke-width:2;"/>
   <rect width="182" height="20" x="603" y="193" style="fill:#007;stroke:black;"/>
   <text width="182" height="20" x="608" y="207" style="fill:#fff;" font-family="Arial" font-size="16px"> collaborateur</text>
   <rect width="182" height="20" x="603" y="213" style="fill:none;stroke:black;"/>
   <text width="182" height="20" x="608" y="227" style="fill:black;" font-family="Arial" font-size="16px">COL_MATRICULE</text>
   <rect width="182" height="20" x="603" y="233" style="fill:none;stroke:black;"/>
   <text width="182" height="20" x="608" y="247" style="fill:black;" font-family="Arial" font-size="16px">COL_NOM</text>
   <rect width="182" height="20" x="603" y="253" style="fill:none;stroke:black;"/>
   <text width="182" height="20" x="608" y="267" style="fill:black;" font-family="Arial" font-size="16px">COL_PRENOM</text>
   <rect width="182" height="20" x="603" y="273" style="fill:none;stroke:black;"/>
   <text width="182" height="20" x="608" y="287" style="fill:black;" font-family="Arial" font-size="16px">COL_ADRESSE</text>
   <rect width="182" height="20" x="603" y="293" style="fill:none;stroke:black;"/>
   <text width="182" height="20" x="608" y="307" style="fill:black;" font-family="Arial" font-size="16px">COL_CP</text>
   <rect width="182" height="20" x="603" y="313" style="fill:none;stroke:black;"/>
   <text width="182" height="20" x="608" y="327" style="fill:black;" font-family="Arial" font-size="16px">COL_VILLE</text>
   <rect width="182" height="20" x="603" y="333" style="fill:none;stroke:black;"/>
   <text width="182" height="20" x="608" y="347" style="fill:black;" font-family="Arial" font-size="16px">COL_DATEEMBAUCHE</text>
   <rect width="182" height="20" x="603" y="353" style="fill:none;stroke:black;"/>
   <text width="182" height="20" x="608" y="367" style="fill:black;" font-family="Arial" font-size="16px">HAB_ID</text>
   <rect width="182" height="20" x="603" y="373" style="fill:none;stroke:black;"/>
   <text width="182" height="20" x="608" y="387" style="fill:black;" font-family="Arial" font-size="16px">LOG_ID</text>
   <rect width="182" height="20" x="603" y="393" style="fill:none;stroke:black;"/>
   <text width="182" height="20" x="608" y="407" style="fill:black;" font-family="Arial" font-size="16px">SEC_CODE</text>
   <rect width="182" height="20" x="603" y="413" style="fill:none;stroke:black;"/>
   <text width="182" height="20" x="608" y="427" style="fill:black;" font-family="Arial" font-size="16px">REG_CODE</text>
   <rect width="130" height="20" x="902" y="1386" style="fill:#007;stroke:black;"/>
   <text width="130" height="20" x="907" y="1400" style="fill:#fff;" font-family="Arial" font-size="16px"> dosage</text>
   <rect width="130" height="20" x="902" y="1406" style="fill:none;stroke:black;"/>
   <text width="130" height="20" x="907" y="1420" style="fill:black;" font-family="Arial" font-size="16px">DOS_CODE</text>
   <rect width="130" height="20" x="902" y="1426" style="fill:none;stroke:black;"/>
   <text width="130" height="20" x="907" y="1440" style="fill:black;" font-family="Arial" font-size="16px">DOS_QUANTITE</text>
   <rect width="130" height="20" x="902" y="1446" style="fill:none;stroke:black;"/>
   <text width="130" height="20" x="907" y="1460" style="fill:black;" font-family="Arial" font-size="16px">DOS_UNITE</text>
   <rect width="93" height="20" x="138" y="732" style="fill:#007;stroke:black;"/>
   <text width="93" height="20" x="143" y="746" style="fill:#fff;" font-family="Arial" font-size="16px"> etat_rapport</text>
   <rect width="93" height="20" x="138" y="752" style="fill:none;stroke:black;"/>
   <text width="93" height="20" x="143" y="766" style="fill:black;" font-family="Arial" font-size="16px">ETAT_ID</text>
   <rect width="93" height="20" x="138" y="772" style="fill:none;stroke:black;"/>
   <text width="93" height="20" x="143" y="786" style="fill:black;" font-family="Arial" font-size="16px">ETAT_LIB</text>
   <rect width="112" height="20" x="139" y="1052" style="fill:#007;stroke:black;"/>
   <text width="112" height="20" x="144" y="1066" style="fill:#fff;" font-family="Arial" font-size="16px"> famille</text>
   <rect width="112" height="20" x="139" y="1072" style="fill:none;stroke:black;"/>
   <text width="112" height="20" x="144" y="1086" style="fill:black;" font-family="Arial" font-size="16px">FAM_CODE</text>
   <rect width="112" height="20" x="139" y="1092" style="fill:none;stroke:black;"/>
   <text width="112" height="20" x="144" y="1106" style="fill:black;" font-family="Arial" font-size="16px">FAM_LIBELLE</text>
   <rect width="157" height="20" x="96" y="1218" style="fill:#007;stroke:black;"/>
   <text width="157" height="20" x="101" y="1232" style="fill:#fff;" font-family="Arial" font-size="16px"> formuler</text>
   <rect width="157" height="20" x="96" y="1238" style="fill:none;stroke:black;"/>
   <text width="157" height="20" x="101" y="1252" style="fill:black;" font-family="Arial" font-size="16px">MED_DEPOTLEGAL</text>
   <rect width="157" height="20" x="96" y="1258" style="fill:#aea;stroke:black;"/>
   <text width="157" height="20" x="101" y="1272" style="fill:black;" font-family="Arial" font-size="16px">PRE_CODE</text>
   <rect width="86" height="20" x="172" y="350" style="fill:#007;stroke:black;"/>
   <text width="86" height="20" x="177" y="364" style="fill:#fff;" font-family="Arial" font-size="16px"> habilitation</text>
   <rect width="86" height="20" x="172" y="370" style="fill:#aea;stroke:black;"/>
   <text width="86" height="20" x="177" y="384" style="fill:black;" font-family="Arial" font-size="16px">HAB_ID</text>
   <rect width="86" height="20" x="172" y="390" style="fill:none;stroke:black;"/>
   <text width="86" height="20" x="177" y="404" style="fill:black;" font-family="Arial" font-size="16px">HAB_LIB</text>
   <rect width="294" height="20" x="1014" y="967" style="fill:#007;stroke:black;"/>
   <text width="294" height="20" x="1019" y="981" style="fill:#fff;" font-family="Arial" font-size="16px"> interagir</text>
   <rect width="294" height="20" x="1014" y="987" style="fill:none;stroke:black;"/>
   <text width="294" height="20" x="1019" y="1001" style="fill:black;" font-family="Arial" font-size="16px">MED_DEPOTLEGAL_PERTURBER</text>
   <rect width="294" height="20" x="1014" y="1007" style="fill:#aea;stroke:black;"/>
   <text width="294" height="20" x="1019" y="1021" style="fill:black;" font-family="Arial" font-size="16px">MED_DEPOTLEGAL_PERTURBATEUR</text>
   <rect width="160" height="20" x="935" y="80" style="fill:#007;stroke:black;"/>
   <text width="160" height="20" x="940" y="94" style="fill:#fff;" font-family="Arial" font-size="16px"> login</text>
   <rect width="160" height="20" x="935" y="100" style="fill:#aea;stroke:black;"/>
   <text width="160" height="20" x="940" y="114" style="fill:black;" font-family="Arial" font-size="16px">LOG_ID</text>
   <rect width="160" height="20" x="935" y="120" style="fill:none;stroke:black;"/>
   <text width="160" height="20" x="940" y="134" style="fill:black;" font-family="Arial" font-size="16px">LOG_LOGIN</text>
   <rect width="160" height="20" x="935" y="140" style="fill:none;stroke:black;"/>
   <text width="160" height="20" x="940" y="154" style="fill:black;" font-family="Arial" font-size="16px">LOG_MOTDEPASSE</text>
   <rect width="160" height="20" x="935" y="160" style="fill:none;stroke:black;"/>
   <text width="160" height="20" x="940" y="174" style="fill:black;" font-family="Arial" font-size="16px">COL_MATRICULE</text>
   <rect width="201" height="20" x="586" y="950" style="fill:#007;stroke:black;"/>
   <text width="201" height="20" x="591" y="964" style="fill:#fff;" font-family="Arial" font-size="16px"> medicament</text>
   <rect width="201" height="20" x="586" y="970" style="fill:none;stroke:black;"/>
   <text width="201" height="20" x="591" y="984" style="fill:black;" font-family="Arial" font-size="16px">MED_DEPOTLEGAL</text>
   <rect width="201" height="20" x="586" y="990" style="fill:none;stroke:black;"/>
   <text width="201" height="20" x="591" y="1004" style="fill:black;" font-family="Arial" font-size="16px">MED_NOMCOMMERCIAL</text>
   <rect width="201" height="20" x="586" y="1010" style="fill:none;stroke:black;"/>
   <text width="201" height="20" x="591" y="1024" style="fill:black;" font-family="Arial" font-size="16px">MED_COMPOSITION</text>
   <rect width="201" height="20" x="586" y="1030" style="fill:none;stroke:black;"/>
   <text width="201" height="20" x="591" y="1044" style="fill:black;" font-family="Arial" font-size="16px">MED_EFFETS</text>
   <rect width="201" height="20" x="586" y="1050" style="fill:none;stroke:black;"/>
   <text width="201" height="20" x="591" y="1064" style="fill:black;" font-family="Arial" font-size="16px">MED_CONTREINDIC</text>
   <rect width="201" height="20" x="586" y="1070" style="fill:none;stroke:black;"/>
   <text width="201" height="20" x="591" y="1084" style="fill:black;" font-family="Arial" font-size="16px">MED_PRIXECHANTILLON</text>
   <rect width="201" height="20" x="586" y="1090" style="fill:none;stroke:black;"/>
   <text width="201" height="20" x="591" y="1104" style="fill:black;" font-family="Arial" font-size="16px">FAM_CODE</text>
   <rect width="81" height="20" x="144" y="620" style="fill:#007;stroke:black;"/>
   <text width="81" height="20" x="149" y="634" style="fill:#fff;" font-family="Arial" font-size="16px"> motif_visite</text>
   <rect width="81" height="20" x="144" y="640" style="fill:none;stroke:black;"/>
   <text width="81" height="20" x="149" y="654" style="fill:black;" font-family="Arial" font-size="16px">MOT_ID</text>
   <rect width="81" height="20" x="144" y="660" style="fill:none;stroke:black;"/>
   <text width="81" height="20" x="149" y="674" style="fill:black;" font-family="Arial" font-size="16px">MOT_LIB</text>
   <rect width="157" height="20" x="237" y="872" style="fill:#007;stroke:black;"/>
   <text width="157" height="20" x="242" y="886" style="fill:#fff;" font-family="Arial" font-size="16px"> offrir</text>
   <rect width="157" height="20" x="237" y="892" style="fill:none;stroke:black;"/>
   <text width="157" height="20" x="242" y="906" style="fill:black;" font-family="Arial" font-size="16px">COL_MATRICULE</text>
   <rect width="157" height="20" x="237" y="912" style="fill:#aea;stroke:black;"/>
   <text width="157" height="20" x="242" y="926" style="fill:black;" font-family="Arial" font-size="16px">RAP_NUM</text>
   <rect width="157" height="20" x="237" y="932" style="fill:#aea;stroke:black;"/>
   <text width="157" height="20" x="242" y="946" style="fill:black;" font-family="Arial" font-size="16px">MED_DEPOTLEGAL</text>
   <rect width="157" height="20" x="237" y="952" style="fill:none;stroke:black;"/>
   <text width="157" height="20" x="242" y="966" style="fill:black;" font-family="Arial" font-size="16px">OFF_QTE</text>
   <rect width="214" height="20" x="1274" y="591" style="fill:#007;stroke:black;"/>
   <text width="214" height="20" x="1279" y="605" style="fill:#fff;" font-family="Arial" font-size="16px"> posseder</text>
   <rect width="214" height="20" x="1274" y="611" style="fill:#aea;stroke:black;"/>
   <text width="214" height="20" x="1279" y="625" style="fill:black;" font-family="Arial" font-size="16px">PRA_NUM</text>
   <rect width="214" height="20" x="1274" y="631" style="fill:none;stroke:black;"/>
   <text width="214" height="20" x="1279" y="645" style="fill:black;" font-family="Arial" font-size="16px">SPE_CODE</text>
   <rect width="214" height="20" x="1274" y="651" style="fill:none;stroke:black;"/>
   <text width="214" height="20" x="1279" y="665" style="fill:black;" font-family="Arial" font-size="16px">POS_DIPLOME</text>
   <rect width="214" height="20" x="1274" y="671" style="fill:none;stroke:black;"/>
   <text width="214" height="20" x="1279" y="685" style="fill:black;" font-family="Arial" font-size="16px">POS_COEFPRESCRIPTION</text>
   <rect width="187" height="20" x="1280" y="315" style="fill:#007;stroke:black;"/>
   <text width="187" height="20" x="1285" y="329" style="fill:#fff;" font-family="Arial" font-size="16px"> praticien</text>
   <rect width="187" height="20" x="1280" y="335" style="fill:#aea;stroke:black;"/>
   <text width="187" height="20" x="1285" y="349" style="fill:black;" font-family="Arial" font-size="16px">PRA_NUM</text>
   <rect width="187" height="20" x="1280" y="355" style="fill:none;stroke:black;"/>
   <text width="187" height="20" x="1285" y="369" style="fill:black;" font-family="Arial" font-size="16px">PRA_NOM</text>
   <rect width="187" height="20" x="1280" y="375" style="fill:none;stroke:black;"/>
   <text width="187" height="20" x="1285" y="389" style="fill:black;" font-family="Arial" font-size="16px">PRA_PRENOM</text>
   <rect width="187" height="20" x="1280" y="395" style="fill:none;stroke:black;"/>
   <text width="187" height="20" x="1285" y="409" style="fill:black;" font-family="Arial" font-size="16px">PRA_ADRESSE</text>
   <rect width="187" height="20" x="1280" y="415" style="fill:none;stroke:black;"/>
   <text width="187" height="20" x="1285" y="429" style="fill:black;" font-family="Arial" font-size="16px">PRA_CP</text>
   <rect width="187" height="20" x="1280" y="435" style="fill:none;stroke:black;"/>
   <text width="187" height="20" x="1285" y="449" style="fill:black;" font-family="Arial" font-size="16px">PRA_VILLE</text>
   <rect width="187" height="20" x="1280" y="455" style="fill:none;stroke:black;"/>
   <text width="187" height="20" x="1285" y="469" style="fill:black;" font-family="Arial" font-size="16px">PRA_COEFNOTORIETE</text>
   <rect width="187" height="20" x="1280" y="475" style="fill:none;stroke:black;"/>
   <text width="187" height="20" x="1285" y="489" style="fill:black;" font-family="Arial" font-size="16px">TYP_CODE</text>
   <rect width="187" height="20" x="1280" y="495" style="fill:none;stroke:black;"/>
   <text width="187" height="20" x="1285" y="509" style="fill:black;" font-family="Arial" font-size="16px">PRA_COEFCONFIANCE</text>
   <rect width="157" height="20" x="607" y="1215" style="fill:#007;stroke:black;"/>
   <text width="157" height="20" x="612" y="1229" style="fill:#fff;" font-family="Arial" font-size="16px"> prescrire</text>
   <rect width="157" height="20" x="607" y="1235" style="fill:none;stroke:black;"/>
   <text width="157" height="20" x="612" y="1249" style="fill:black;" font-family="Arial" font-size="16px">TIN_CODE</text>
   <rect width="157" height="20" x="607" y="1255" style="fill:#aea;stroke:black;"/>
   <text width="157" height="20" x="612" y="1269" style="fill:black;" font-family="Arial" font-size="16px">DOS_CODE</text>
   <rect width="157" height="20" x="607" y="1275" style="fill:#aea;stroke:black;"/>
   <text width="157" height="20" x="612" y="1289" style="fill:black;" font-family="Arial" font-size="16px">MED_DEPOTLEGAL</text>
   <rect width="157" height="20" x="607" y="1295" style="fill:none;stroke:black;"/>
   <text width="157" height="20" x="612" y="1309" style="fill:black;" font-family="Arial" font-size="16px">PRE_POSOLOGIE</text>
   <rect width="111" height="20" x="99" y="1319" style="fill:#007;stroke:black;"/>
   <text width="111" height="20" x="104" y="1333" style="fill:#fff;" font-family="Arial" font-size="16px"> presentation</text>
   <rect width="111" height="20" x="99" y="1339" style="fill:none;stroke:black;"/>
   <text width="111" height="20" x="104" y="1353" style="fill:black;" font-family="Arial" font-size="16px">PRE_CODE</text>
   <rect width="111" height="20" x="99" y="1359" style="fill:none;stroke:black;"/>
   <text width="111" height="20" x="104" y="1373" style="fill:black;" font-family="Arial" font-size="16px">PRE_LIBELLE</text>
   <rect width="162" height="20" x="616" y="600" style="fill:#007;stroke:black;"/>
   <text width="162" height="20" x="621" y="614" style="fill:#fff;" font-family="Arial" font-size="16px"> rapport_visite</text>
   <rect width="162" height="20" x="616" y="620" style="fill:none;stroke:black;"/>
   <text width="162" height="20" x="621" y="634" style="fill:black;" font-family="Arial" font-size="16px">COL_MATRICULE</text>
   <rect width="162" height="20" x="616" y="640" style="fill:#aea;stroke:black;"/>
   <text width="162" height="20" x="621" y="654" style="fill:black;" font-family="Arial" font-size="16px">RAP_NUM</text>
   <rect width="162" height="20" x="616" y="660" style="fill:none;stroke:black;"/>
   <text width="162" height="20" x="621" y="674" style="fill:black;" font-family="Arial" font-size="16px">PRA_NUM</text>
   <rect width="162" height="20" x="616" y="680" style="fill:none;stroke:black;"/>
   <text width="162" height="20" x="621" y="694" style="fill:black;" font-family="Arial" font-size="16px">RAP_DATE_VISITE</text>
   <rect width="162" height="20" x="616" y="700" style="fill:none;stroke:black;"/>
   <text width="162" height="20" x="621" y="714" style="fill:black;" font-family="Arial" font-size="16px">RAP_BILAN</text>
   <rect width="162" height="20" x="616" y="720" style="fill:none;stroke:black;"/>
   <text width="162" height="20" x="621" y="734" style="fill:black;" font-family="Arial" font-size="16px">RAP_MOTIF_AUTRE</text>
   <rect width="162" height="20" x="616" y="740" style="fill:none;stroke:black;"/>
   <text width="162" height="20" x="621" y="754" style="fill:black;" font-family="Arial" font-size="16px">REMP_NUM</text>
   <rect width="162" height="20" x="616" y="760" style="fill:none;stroke:black;"/>
   <text width="162" height="20" x="621" y="774" style="fill:black;" font-family="Arial" font-size="16px">MOT_ID</text>
   <rect width="162" height="20" x="616" y="780" style="fill:none;stroke:black;"/>
   <text width="162" height="20" x="621" y="794" style="fill:black;" font-family="Arial" font-size="16px">ETAT_ID</text>
   <rect width="162" height="20" x="616" y="800" style="fill:none;stroke:black;"/>
   <text width="162" height="20" x="621" y="814" style="fill:black;" font-family="Arial" font-size="16px">RAP_DATE_SAISIE</text>
   <rect width="162" height="20" x="616" y="820" style="fill:none;stroke:black;"/>
   <text width="162" height="20" x="621" y="834" style="fill:black;" font-family="Arial" font-size="16px">MED_PRESENTER_1</text>
   <rect width="162" height="20" x="616" y="840" style="fill:none;stroke:black;"/>
   <text width="162" height="20" x="621" y="854" style="fill:black;" font-family="Arial" font-size="16px">MED_PRESENTER_2</text>
   <rect width="96" height="20" x="133" y="57" style="fill:#007;stroke:black;"/>
   <text width="96" height="20" x="138" y="71" style="fill:#fff;" font-family="Arial" font-size="16px"> region</text>
   <rect width="96" height="20" x="133" y="77" style="fill:none;stroke:black;"/>
   <text width="96" height="20" x="138" y="91" style="fill:black;" font-family="Arial" font-size="16px">REG_CODE</text>
   <rect width="96" height="20" x="133" y="97" style="fill:none;stroke:black;"/>
   <text width="96" height="20" x="138" y="111" style="fill:black;" font-family="Arial" font-size="16px">REG_NOM</text>
   <rect width="96" height="20" x="133" y="117" style="fill:none;stroke:black;"/>
   <text width="96" height="20" x="138" y="131" style="fill:black;" font-family="Arial" font-size="16px">SEC_CODE</text>
   <rect width="111" height="20" x="567" y="38" style="fill:#007;stroke:black;"/>
   <text width="111" height="20" x="572" y="52" style="fill:#fff;" font-family="Arial" font-size="16px"> secteur</text>
   <rect width="111" height="20" x="567" y="58" style="fill:none;stroke:black;"/>
   <text width="111" height="20" x="572" y="72" style="fill:black;" font-family="Arial" font-size="16px">SEC_CODE</text>
   <rect width="111" height="20" x="567" y="78" style="fill:none;stroke:black;"/>
   <text width="111" height="20" x="572" y="92" style="fill:black;" font-family="Arial" font-size="16px">SEC_LIBELLE</text>
   <rect width="110" height="20" x="1276" y="765" style="fill:#007;stroke:black;"/>
   <text width="110" height="20" x="1281" y="779" style="fill:#fff;" font-family="Arial" font-size="16px"> specialite</text>
   <rect width="110" height="20" x="1276" y="785" style="fill:none;stroke:black;"/>
   <text width="110" height="20" x="1281" y="799" style="fill:black;" font-family="Arial" font-size="16px">SPE_CODE</text>
   <rect width="110" height="20" x="1276" y="805" style="fill:none;stroke:black;"/>
   <text width="110" height="20" x="1281" y="819" style="fill:black;" font-family="Arial" font-size="16px">SPE_LIBELLE</text>
   <rect width="104" height="20" x="414" y="1402" style="fill:#007;stroke:black;"/>
   <text width="104" height="20" x="419" y="1416" style="fill:#fff;" font-family="Arial" font-size="16px"> type_individu</text>
   <rect width="104" height="20" x="414" y="1422" style="fill:none;stroke:black;"/>
   <text width="104" height="20" x="419" y="1436" style="fill:black;" font-family="Arial" font-size="16px">TIN_CODE</text>
   <rect width="104" height="20" x="414" y="1442" style="fill:none;stroke:black;"/>
   <text width="104" height="20" x="419" y="1456" style="fill:black;" font-family="Arial" font-size="16px">TIN_LIBELLE</text>
   <rect width="109" height="20" x="1260" y="138" style="fill:#007;stroke:black;"/>
   <text width="109" height="20" x="1265" y="152" style="fill:#fff;" font-family="Arial" font-size="16px"> type_praticien</text>
   <rect width="109" height="20" x="1260" y="158" style="fill:none;stroke:black;"/>
   <text width="109" height="20" x="1265" y="172" style="fill:black;" font-family="Arial" font-size="16px">TYP_CODE</text>
   <rect width="109" height="20" x="1260" y="178" style="fill:none;stroke:black;"/>
   <text width="109" height="20" x="1265" y="192" style="fill:black;" font-family="Arial" font-size="16px">TYP_LIBELLE</text>
   <rect width="109" height="20" x="1260" y="198" style="fill:none;stroke:black;"/>
   <text width="109" height="20" x="1265" y="212" style="fill:black;" font-family="Arial" font-size="16px">TYP_LIEU</text>
</svg>
